<?xml version="1.0" encoding="UTF-8" standalone="no"?>
<svg
   xmlns:dc="http://purl.org/dc/elements/1.1/"
   xmlns:cc="http://creativecommons.org/ns#"
   xmlns:rdf="http://www.w3.org/1999/02/22-rdf-syntax-ns#"
   xmlns:svg="http://www.w3.org/2000/svg"
   xmlns="http://www.w3.org/2000/svg"
   xmlns:sodipodi="http://sodipodi.sourceforge.net/DTD/sodipodi-0.dtd"
   xmlns:inkscape="http://www.inkscape.org/namespaces/inkscape"
   width="74pt"
   height="56pt"
   viewBox="0 0 26.105556 19.755556"
   version="1.1"
   id="svg28"
   inkscape:version="1.0.2-2 (e86c870879, 2021-01-15)"
   sodipodi:docname="learning-stats alt6.svg">
  <defs
     id="defs22" />
  <sodipodi:namedview
     id="base"
     pagecolor="#ffffff"
     bordercolor="#666666"
     borderopacity="1.0"
     inkscape:pageopacity="0.0"
     inkscape:pageshadow="2"
     inkscape:zoom="7.9195959"
     inkscape:cx="18.652282"
     inkscape:cy="36.88457"
     inkscape:document-units="mm"
     inkscape:current-layer="layer1"
     inkscape:document-rotation="0"
     showgrid="false"
     units="pt"
     width="74in"
     inkscape:window-width="1920"
     inkscape:window-height="1017"
     inkscape:window-x="-8"
     inkscape:window-y="-8"
     inkscape:window-maximized="1" />
  <metadata
     id="metadata25">
    <rdf:RDF>
      <cc:Work
         rdf:about="">
        <dc:format>image/svg+xml</dc:format>
        <dc:type
           rdf:resource="http://purl.org/dc/dcmitype/StillImage" />
        <dc:title />
      </cc:Work>
    </rdf:RDF>
  </metadata>
  <g
     inkscape:label="Layer 1"
     inkscape:groupmode="layer"
     id="layer1">
    <path
       style="fill:#000000;fill-opacity:0;stroke:#c65000;stroke-width:0.823;stroke-linecap:butt;stroke-linejoin:miter;stroke-miterlimit:4;stroke-dasharray:none;stroke-opacity:1"
       d="M 7.829473,19.82198 7.886308,17.549896 6.8015349,17.362645 5.9337166,16.988143 5.4564165,16.276591 5.1960709,15.302887 l 2e-7,-1.647806 L 3.633998,13.392931 2.9831343,13.355479 2.722789,13.05588 2.5492254,12.456678 3.0265252,11.595324 5.4564167,8.0001109 V 5.7905528 l 0.6508639,-2.0223071 0.997991,-1.423105 1.2149459,-0.9362533 1.6488546,-0.71155268 2.8638009,-0.2247008 3.037364,0.0374501 2.863801,0.89880328 1.388508,1.086054 1.692247,2.509159 0.494242,2.7117828 0.113227,0.6212791 -0.08679,1.3856551 -0.347128,1.6478067 -0.867818,1.572904 -0.911208,1.535456 -1.779028,2.434259 0.03727,2.868648"
       id="path34"
       sodipodi:nodetypes="ccccccccccccccccccccccccccccccc" />
    <path
       style="fill:none;stroke:#fb8c00;stroke-width:0.432597;stroke-linecap:butt;stroke-linejoin:miter;stroke-miterlimit:4;stroke-dasharray:none;stroke-opacity:1"
       d="m 17.574524,12.109519 2.000743,1.888029"
       id="path40-3"
       sodipodi:nodetypes="cc" />
    <path
       style="fill:none;stroke:#909090;stroke-width:0.428043;stroke-linecap:butt;stroke-linejoin:miter;stroke-miterlimit:4;stroke-dasharray:none;stroke-opacity:1"
       d="m 12.282211,16.583463 c -0.267067,-0.900205 -0.201807,-1.800409 0.01349,-2.700615 l 2.172423,0.03335 c 0.216022,0.875638 0.330344,1.763088 0.0135,2.700617 -0.674083,0.22894 -1.418003,0.173993 -2.19941,-0.03335 z"
       id="path20"
       sodipodi:nodetypes="ccccc" />
    <path
       style="fill:none;stroke:#909090;stroke-width:0.302493;stroke-linecap:butt;stroke-linejoin:miter;stroke-miterlimit:4;stroke-dasharray:none;stroke-opacity:1"
       d="m 12.629112,14.60573 1.431794,0.02343"
       id="path24" />
    <path
       style="fill:none;stroke:#909090;stroke-width:0.302493;stroke-linecap:butt;stroke-linejoin:miter;stroke-miterlimit:4;stroke-dasharray:none;stroke-opacity:1"
       d="m 12.68961,15.683131 1.290631,0.02343"
       id="path26"
       sodipodi:nodetypes="cc" />
    <path
       style="fill:none;stroke:#fb8c00;stroke-width:0.692805;stroke-linecap:butt;stroke-linejoin:miter;stroke-miterlimit:4;stroke-dasharray:none;stroke-opacity:1"
       d="m 14.468124,13.916192 c 0.376384,-0.115608 0.592487,-1.021979 0.540588,-1.441843 v 0 c -0.006,-1.198719 0.353259,-1.841185 0.685647,-2.389018 C 19.04707,6.5114991 16.028034,3.3563375 13.553294,3.6105335 9.7068504,3.569059 8.4807068,6.9108236 10.632669,10.272704 c 1.013671,1.24591 0.971926,1.722492 1.028471,2.107958 v 0 c 0.101432,0.671637 0.301172,1.507038 0.634562,1.502186"
       id="path28"
       sodipodi:nodetypes="ccccccccc" />
    <path
       style="fill:none;stroke:#fb8c00;stroke-width:0.432597;stroke-linecap:butt;stroke-linejoin:miter;stroke-miterlimit:4;stroke-dasharray:none;stroke-opacity:1"
       d="m 18.176469,8.7266153 2.314454,0.066247"
       id="path40"
       sodipodi:nodetypes="cc" />
    <path
       style="fill:none;stroke:#909090;stroke-width:0.436499;stroke-linecap:butt;stroke-linejoin:miter;stroke-miterlimit:4;stroke-dasharray:none;stroke-opacity:1"
       d="m 13.890903,13.786643 0.05559,-3.771207 c -0.261015,-0.7457552 0.781123,-0.8556045 0.861715,-0.3397482 0.06011,0.2871017 0.03194,0.5279722 -0.166783,0.6794972 l -0.653237,-0.03397"
       id="path867"
       sodipodi:nodetypes="ccccc" />
    <path
       style="fill:none;stroke:#909090;stroke-width:0.505454;stroke-linecap:butt;stroke-linejoin:miter;stroke-miterlimit:4;stroke-dasharray:none;stroke-opacity:1"
       d="M 13.00085,13.815541 12.93816,10.025777 C 13.127849,9.27136 12.042176,9.146739 11.966414,9.6843563 c -0.06777,0.2885148 -0.03602,0.5305727 0.18808,0.6828407 l 0.736642,-0.03414"
       id="path867-8"
       sodipodi:nodetypes="ccccc" />
    <path
       style="fill:none;stroke:#fb8c00;stroke-width:0.432597;stroke-linecap:butt;stroke-linejoin:miter;stroke-miterlimit:4;stroke-dasharray:none;stroke-opacity:1"
       d="M 17.617302,5.2496659 19.618046,3.3616378"
       id="path40-3-2"
       sodipodi:nodetypes="cc" />
    <path
       style="fill:none;stroke:#fb8c00;stroke-width:0.432597;stroke-linecap:butt;stroke-linejoin:miter;stroke-miterlimit:4;stroke-dasharray:none;stroke-opacity:1"
       d="m 9.2690334,12.147609 -2.0007417,1.88803"
       id="path40-3-9"
       sodipodi:nodetypes="cc" />
    <path
       style="fill:none;stroke:#fb8c00;stroke-width:0.432597;stroke-linecap:butt;stroke-linejoin:miter;stroke-miterlimit:4;stroke-dasharray:none;stroke-opacity:1"
       d="M 8.6670882,8.764708 6.3526368,8.830955"
       id="path40-9"
       sodipodi:nodetypes="cc" />
    <path
       style="fill:none;stroke:#fb8c00;stroke-width:0.432597;stroke-linecap:butt;stroke-linejoin:miter;stroke-miterlimit:4;stroke-dasharray:none;stroke-opacity:1"
       d="M 9.2262544,5.2877586 7.2255138,3.399731"
       id="path40-3-2-1"
       sodipodi:nodetypes="cc" />
  </g>
</svg>
