<?xml version="1.0" encoding="UTF-8" standalone="no"?>
<svg
   xmlns:dc="http://purl.org/dc/elements/1.1/"
   xmlns:cc="http://creativecommons.org/ns#"
   xmlns:rdf="http://www.w3.org/1999/02/22-rdf-syntax-ns#"
   xmlns:svg="http://www.w3.org/2000/svg"
   xmlns="http://www.w3.org/2000/svg"
   xmlns:sodipodi="http://sodipodi.sourceforge.net/DTD/sodipodi-0.dtd"
   xmlns:inkscape="http://www.inkscape.org/namespaces/inkscape"
   width="74pt"
   height="56pt"
   viewBox="0 0 26.105556 19.755556"
   version="1.1"
   id="svg28"
   inkscape:version="1.0.2-2 (e86c870879, 2021-01-15)"
   sodipodi:docname="learning-stats.svg">
  <defs
     id="defs22" />
  <sodipodi:namedview
     id="base"
     pagecolor="#ffffff"
     bordercolor="#666666"
     borderopacity="1.0"
     inkscape:pageopacity="0.0"
     inkscape:pageshadow="2"
     inkscape:zoom="7.9195959"
     inkscape:cx="28.880077"
     inkscape:cy="36.88457"
     inkscape:document-units="mm"
     inkscape:current-layer="layer1"
     inkscape:document-rotation="0"
     showgrid="false"
     units="pt"
     width="74in"
     inkscape:window-width="1920"
     inkscape:window-height="1017"
     inkscape:window-x="-8"
     inkscape:window-y="-8"
     inkscape:window-maximized="1" />
  <metadata
     id="metadata25">
    <rdf:RDF>
      <cc:Work
         rdf:about="">
        <dc:format>image/svg+xml</dc:format>
        <dc:type
           rdf:resource="http://purl.org/dc/dcmitype/StillImage" />
        <dc:title />
      </cc:Work>
    </rdf:RDF>
  </metadata>
  <g
     inkscape:label="Layer 1"
     inkscape:groupmode="layer"
     id="layer1">
    <path
       style="fill:#000000;fill-opacity:0;stroke:#c65000;stroke-width:0.648;stroke-linecap:butt;stroke-linejoin:miter;stroke-miterlimit:4;stroke-dasharray:none;stroke-opacity:1"
       d="m 16.591781,19.784015 0.03599,-1.767914 -0.687064,-0.1457 -0.54965,-0.291402 -0.302311,-0.55366 -0.164895,-0.757642 v -1.282161 l -0.989372,-0.203979 -0.412239,-0.02914 -0.164895,-0.233118 -0.10993,-0.466241 0.302307,-0.670222 1.539025,-2.797444 V 8.8661273 l 0.412239,-1.573562 0.6321,-1.1073214 0.769513,-0.728501 1.044336,-0.5536607 1.813852,-0.1748402 1.92378,0.02914 1.813851,0.699361 0.879442,0.8450611 1.071822,1.9523826 0.313039,2.1100453 0.07172,0.483419 -0.05498,1.078182 -0.219861,1.282162 -0.549651,1.223881 -0.577134,1.194742 -1.126787,1.894102 0.0236,2.232102"
       id="path34"
       sodipodi:nodetypes="ccccccccccccccccccccccccccccccc" />
    <path
       style="fill:none;stroke:#fb8c00;stroke-width:0.453834;stroke-linecap:butt;stroke-linejoin:miter;stroke-miterlimit:4;stroke-dasharray:none;stroke-opacity:1"
       d="m 11.877246,9.3196008 2.132927,1.9491802"
       id="path40-3"
       sodipodi:nodetypes="cc" />
    <path
       style="fill:none;stroke:#909090;stroke-width:0.449056;stroke-linecap:butt;stroke-linejoin:miter;stroke-miterlimit:4;stroke-dasharray:none;stroke-opacity:1"
       d="M 6.2352801,13.93845 C 5.9505694,13.009088 6.0201406,12.079727 6.2496618,11.150365 l 2.31595,0.03442 c 0.2302939,0.903998 0.3521693,1.820191 0.014389,2.788084 -0.7186182,0.236357 -1.5116873,0.179629 -2.3447208,-0.03443 z"
       id="path20"
       sodipodi:nodetypes="ccccc" />
    <path
       style="fill:none;stroke:#909090;stroke-width:0.317342;stroke-linecap:butt;stroke-linejoin:miter;stroke-miterlimit:4;stroke-dasharray:none;stroke-opacity:1"
       d="m 6.6051011,11.89666 1.5263886,0.02418"
       id="path24" />
    <path
       style="fill:none;stroke:#909090;stroke-width:0.317342;stroke-linecap:butt;stroke-linejoin:miter;stroke-miterlimit:4;stroke-dasharray:none;stroke-opacity:1"
       d="m 6.6695963,13.008956 1.3758996,0.02418"
       id="path26"
       sodipodi:nodetypes="cc" />
    <path
       style="fill:none;stroke:#fb8c00;stroke-width:0.726817;stroke-linecap:butt;stroke-linejoin:miter;stroke-miterlimit:4;stroke-dasharray:none;stroke-opacity:1"
       d="M 8.5656122,11.184789 C 8.966863,11.065431 9.197243,10.12971 9.1419151,9.6962469 v 0 C 9.1355476,8.4587027 9.518514,7.7954286 9.872862,7.2298511 13.447079,3.5402688 10.228582,0.2829167 7.5903405,0.5453456 3.4897719,0.50252786 2.182619,3.952528 4.4767566,7.4232942 5.5573978,8.709558 5.5128968,9.201575 5.5731765,9.5995254 v 0 c 0.1081372,0.6933916 0.3210694,1.5558476 0.6764857,1.5508396"
       id="path28"
       sodipodi:nodetypes="ccccccccc" />
    <path
       style="fill:none;stroke:#fb8c00;stroke-width:0.453834;stroke-linecap:butt;stroke-linejoin:miter;stroke-miterlimit:4;stroke-dasharray:none;stroke-opacity:1"
       d="m 12.518959,5.8271305 2.467366,0.068387"
       id="path40"
       sodipodi:nodetypes="cc" />
    <path
       style="fill:none;stroke:#909090;stroke-width:0.457929;stroke-linecap:butt;stroke-linejoin:miter;stroke-miterlimit:4;stroke-dasharray:none;stroke-opacity:1"
       d="M 7.9502555,11.051043 8.0095217,7.1576929 C 7.7312622,6.3877836 8.8422514,6.2743758 8.9281687,6.8069405 8.9922418,7.1033412 8.9622222,7.3520147 8.7503664,7.5084453 L 8.053972,7.4733672"
       id="path867"
       sodipodi:nodetypes="ccccc" />
    <path
       style="fill:none;stroke:#909090;stroke-width:0.53027;stroke-linecap:butt;stroke-linejoin:miter;stroke-miterlimit:4;stroke-dasharray:none;stroke-opacity:1"
       d="M 7.0013987,11.080878 6.9345639,7.1683688 C 7.1367897,6.3895166 5.9793886,6.2608595 5.8986219,6.8158905 5.8263697,7.1137496 5.8602247,7.363647 6.0991269,7.520847 L 6.8844373,7.485596"
       id="path867-8"
       sodipodi:nodetypes="ccccc" />
    <path
       style="fill:none;stroke:#fb8c00;stroke-width:0.453834;stroke-linecap:butt;stroke-linejoin:miter;stroke-miterlimit:4;stroke-dasharray:none;stroke-opacity:1"
       d="M 11.92285,2.2375668 14.055778,0.28838854"
       id="path40-3-2"
       sodipodi:nodetypes="cc" />
    <path
       style="fill:none;stroke:#fb8c00;stroke-width:0.453834;stroke-linecap:butt;stroke-linejoin:miter;stroke-miterlimit:4;stroke-dasharray:none;stroke-opacity:1"
       d="M 3.0230282,9.3589246 0.89010214,11.308104"
       id="path40-3-9"
       sodipodi:nodetypes="cc" />
    <path
       style="fill:none;stroke:#fb8c00;stroke-width:0.453834;stroke-linecap:butt;stroke-linejoin:miter;stroke-miterlimit:4;stroke-dasharray:none;stroke-opacity:1"
       d="m 2.3813143,5.8664557 -2.46736306,0.068387"
       id="path40-9"
       sodipodi:nodetypes="cc" />
    <path
       style="fill:none;stroke:#fb8c00;stroke-width:0.453834;stroke-linecap:butt;stroke-linejoin:miter;stroke-miterlimit:4;stroke-dasharray:none;stroke-opacity:1"
       d="M 2.9774237,2.2768938 0.84449742,0.32771558"
       id="path40-3-2-1"
       sodipodi:nodetypes="cc" />
  </g>
</svg>
